<svg id="Layer_1" data-name="Layer 1" xmlns="http://www.w3.org/2000/svg" width="374.51" height="245.06" viewBox="0 0 374.51 245.06"><title>Cupra logo - Brandlogos.net</title><path d="M446.36,296.13l-35.5,17.37h0q10.82,4.14,21.64,8.31c4.46,1.72,9.75,3.88,11.71,9.16s-.95,10.24-3.55,14.32l-11.81,18.5q-21,32.91-42.09,65.8,0-10.15-.05-20.3h0q8.07-25.37,15.69-50.89,2.16-7.25,4.26-14.51c.85-2.91.3-4.66-2.51-6.05l-21.51-10.6-21.51,10.6c-2.81,1.39-3.35,3.14-2.51,6.05q2.1,7.26,4.26,14.51,7.59,25.52,15.69,50.89h0q0,10.15-.05,20.3-21.1-32.87-42.09-65.8l-11.81-18.5C322,341.21,319,336.38,321,331s7.25-7.43,11.71-9.16q10.81-4.17,21.63-8.31h0l-35.5-17.37,0,0,11.07,18.55-18.3,7q-19.22-30.1-38.4-60.23c36.42,12.92,72.81,25.94,109.39,38.43,36.58-12.49,73-25.51,109.39-38.43q-19.15,30.14-38.4,60.23l-18.3-7,11.07-18.55" transform="translate(-196.74 -261.47)" style="fill:#8f5a31"/><path d="M426.86,506.51l0-35.33h57.84c5.37,0,9.73,3.29,9.73,8.26v7.31c0,5.1-3.4,8.56-6.84,8.56l7.7,11.22H482.66L476,495.76H438.11v10.77Zm11.25-27.59v8.29h44.61a1.65,1.65,0,0,0,1.71-1.59V480.5a1.65,1.65,0,0,0-1.71-1.59Z" transform="translate(-196.74 -261.47)" style="fill:#8f5a31"/><path d="M408.05,471.18c7.15,0,9.73,3.29,9.73,8.26v7.31c0,5-2.19,9-9.73,9H361v10.77H350V471.18Zm-47.07,16h45.13a1.65,1.65,0,0,0,1.71-1.58V480.5a1.65,1.65,0,0,0-1.71-1.59H361Zm210.28,19.32H560.32V495.76H514.55v10.77H503.62l-.1-26.35c0-5,4.35-9,9.73-9h57.84c.1.07.16,0,.17,0Zm-10.93-19.34v-8.27H516.16a1.65,1.65,0,0,0-1.71,1.59v6.68c0-.12,30.11,0,45.87,0M341,471.18v26.35c0,5-4.35,9-9.73,9H283.13c-5.37,0-9.73-4-9.73-9V471.18H285v24.09a1.65,1.65,0,0,0,1.71,1.59h41a1.65,1.65,0,0,0,1.71-1.59V471.18Zm-76.73,35.35H206.47c-5.37,0-9.73-4-9.73-9V480.18c0-5,4.36-9,9.73-9h57.84v9.68h-55.9a1.65,1.65,0,0,0-1.71,1.59v12.83a1.65,1.65,0,0,0,1.71,1.59h55.9Z" transform="translate(-196.74 -261.47)" style="fill:#8f5a31"/></svg>